<svg xmlns="http://www.w3.org/2000/svg" xmlns:xlink="http://www.w3.org/1999/xlink" width="256" height="226" preserveAspectRatio="xMidYMid" version="1.1" viewBox="0 0 256 226"><title>netlify</title><g><polygon fill="#05BDBA" points="69.181 188.087 66.764 188.087 54.699 176.022 54.699 173.605 73.143 155.161 85.921 155.161 87.625 156.865 87.625 169.643"/><polygon fill="#05BDBA" points="54.699 51.628 54.699 49.211 66.764 37.146 69.181 37.146 87.625 55.59 87.625 68.368 85.921 70.072 73.143 70.072"/><path fill="#014847" d="M160.906229,149.197744 L143.3536,149.197744 L141.887515,147.731858 L141.887515,106.643468 C141.887515,99.3332396 139.014939,93.6670823 130.199028,93.4690977 C125.662183,93.350107 120.471588,93.4690977 114.924622,93.6868807 L114.092487,94.5388142 L114.092487,147.71206 L112.626401,149.177945 L95.0737724,149.177945 L93.6076869,147.71206 L93.6076869,77.5211437 L95.0737724,76.0550582 L134.577286,76.0550582 C149.930887,76.0550582 162.372315,88.4964862 162.372315,103.850087 L162.372315,147.731858 L160.906229,149.197744 Z"/><polygon fill="#05BDBA" points="71.677 122.889 1.466 122.889 0 121.423 0 103.83 1.466 102.364 71.677 102.364 73.143 103.83 73.143 121.423"/><polygon fill="#05BDBA" points="254.534 122.889 184.323 122.889 182.857 121.423 182.857 103.83 184.323 102.364 254.534 102.364 256 103.83 256 121.423"/><polygon fill="#05BDBA" points="117.876 54.124 117.876 1.466 119.342 0 136.935 0 138.401 1.466 138.401 54.124 136.935 55.59 119.342 55.59"/><polygon fill="#05BDBA" points="117.876 223.787 117.876 171.129 119.342 169.663 136.935 169.663 138.401 171.129 138.401 223.787 136.935 225.252 119.342 225.252"/></g></svg>