<svg xmlns="http://www.w3.org/2000/svg" xmlns:xlink="http://www.w3.org/1999/xlink" width="256" height="256" preserveAspectRatio="xMidYMid" version="1.1" viewBox="0 0 256 256"><g><path fill="#9DD6E3" d="M256.000405,0 L256.000405,170.666936 L170.666936,170.666936 L170.666936,255.996382 L0.00201096905,255.996382 L0.002,170.666 L0,170.666936 L0,85.3314569 L85.3334681,85.3314569 L85.3334681,0 L256.000405,0 Z"/><polygon fill="#3F72AB" points=".002 255.996 85.335 255.996 85.335 170.663 .002 170.663"/><polygon fill="#00A9D1" points="170.667 170.667 256 170.667 256 85.331 170.667 85.331"/><polygon fill="#00A9D1" points="85.333 85.333 170.667 85.333 170.667 0 85.333 0"/><polygon fill="#2191C4" points="85.333 170.665 170.667 170.665 170.667 85.331 85.333 85.331"/><polygon fill="#3F72AB" points="170.667 85.333 256 85.333 256 0 170.667 0"/></g></svg>